<svg version="1.2" xmlns="http://www.w3.org/2000/svg" viewBox="0 0 1540 1540" width="1540" height="1540">
	<title>vecteezy_white-cat-head-logo-pink-theme-simple-and-flat-soft-color_-ai</title>
	<style>
		.s0 { fill: #ff6c77 } 
		.s1 { fill: #fdfffe } 
		.s2 { fill: #1b414b } 
		.s3 { fill: #c9dee3 } 
		.s4 { fill: #e6616e } 
	</style>
	<g id="_Artboards_">
	</g>
	<g id="Logo">
		<g id="&lt;Group&gt;">
			<path id="&lt;Path&gt;" class="s0" d="m1302.1 237.8q-5.6 0-15.4 1.5-29.1 4.3-42.9 7.4-55.3 12.4-117.2 36.4-45 17.6-85.8 40.9-18.5 10.6-38 22.7c-4.5 2.7-12.7 9.9-18 9.2q-2.9-0.4-5.4-1.3-17.8-6.6-36.1-12.8-39.4-13.3-79.2-19.7c-35.1-5.6-73-9.1-106.6-8.3q-98.9 2.6-198.3 40.3c-8.2 3.1-11.6-2-17.7-5.9q-22.8-14.6-43.6-26.7-30.7-18-74-35.3-56.9-22.7-117.4-37.9-26.1-6.6-64.9-10.2 8.4-11.1 22.3-22.9 46.7-39.7 80-63.7 17-12.3 36.7-24.4 43.5-26.6 92.5-48.8 83.2-37.7 175.5-54.9c66.6-12.3 135-14 201.8-6.9q19.5 2.1 62.3 10.1c31.2 5.9 61.4 14.6 91.2 24.8q105.7 36.3 193.7 98.2 47.3 33.3 86.9 69.9 8.4 7.8 17.6 18.3z"/>
			<path id="&lt;Path&gt;" class="s1" d="m787.6 235.6c-22.1 9.3-47.8-1.5-57.2-24.1-9.5-22.6 0.8-48.5 23-57.7 22.1-9.3 47.8 1.5 57.2 24.1 9.5 22.6-0.8 48.4-23 57.7z"/>
			<path id="&lt;Path&gt;" class="s1" d="m644.7 226.4c-14.2 7.7-32 2.1-39.9-12.5-7.8-14.5-2.6-32.5 11.6-40.1 14.1-7.7 32-2.1 39.8 12.5 7.9 14.5 2.7 32.5-11.5 40.1z"/>
			<path id="&lt;Path&gt;" class="s1" d="m940.5 200.1c0 16.4-13.3 29.7-29.8 29.7-16.4 0-29.7-13.3-29.7-29.7 0-16.4 13.3-29.7 29.7-29.7 16.5 0 29.8 13.3 29.8 29.7z"/>
			<path id="&lt;Path&gt;" class="s2" d="m241.6 238.1q38.8 3.6 64.9 10.2 60.5 15.2 117.4 37.9 43.3 17.3 74 35.3 20.8 12.1 43.6 26.7c6.1 3.9 9.5 9 17.7 5.9q99.4-37.7 198.3-40.3c33.6-0.8 71.5 2.7 106.6 8.3q39.8 6.4 79.2 19.7 18.3 6.2 36.1 12.8 2.5 0.9 5.4 1.3c5.3 0.7 13.5-6.5 18-9.2q19.5-12.1 38-22.7 40.8-23.3 85.8-40.9 61.9-24 117.2-36.4 13.8-3.1 42.9-7.4 9.8-1.5 15.4-1.5c12.1 5.2 21.1 10.6 25 24q1.8 6 3.5 11.5 14.5 103.1 4.4 206.4-3.6 36.5-12.3 78.4-10 48.3-27.2 93.1c-0.4 1.1-0.4 2.3 0.1 3.4q12.2 27.3 22.5 55.8 12.1 33.2 20.4 79.4 4 22.2 5.2 46.2 2.9 63.4-8.8 123-14.7 75.3-53.7 141.4-14.6 24.7-38.4 56.1-39.2 48.9-88.2 88-14.4 11.5-28.8 21.1-47.2 31.4-94.1 51.7-52.7 22.6-112.9 36.9-17.1 4.1-36.2 7.4c-102.4 17.4-207 11-306.8-19.6q-23.5-7.3-38-12.9-87.5-34-153.2-85.5-42-33-81.8-81.2-41.7-50.3-68.1-109.5c-8.4-18.9-15.5-39.9-21.7-60.2q-5.7-18.3-9.1-38.2-13-75.3-4-149.8c2.5-20.7 6.8-42.7 12.2-61.7q6-21 14.6-45.3c4.8-13.4 10.4-25.3 16.1-37.7q3-6.4 0.3-13.4c-7.2-18.6-14.5-37.6-19.1-57q-1.6-7-4.3-17.8-10.9-43.8-15-91.1-2.5-29.7-2.9-41.3-2.6-80.6 7.1-160.7 0-0.5-0.2-0.8-0.2-0.5-0.7-0.5 2.3-1.9 3-4.9c2.6-11.3 4.4-20.8 13.7-27.6q5.5-4 16.9-6.8z"/>
			<path id="&lt;Path&gt;" class="s0" d="m1330.6 273.3q10.4 9 16.5 16.2 19.7 23.4 38 48.5 57 78.1 92.2 163.4c22.1 53.2 37.9 110.1 45.7 167.7q9.4 69.3 6.2 147.3-4.6 111.1-41.1 211.4c-56.8 156.6-164 291.5-305.4 380.2q-55.9 35-109.7 58.1-22.4 9.7-51.1 19.7-57.2 20-112.9 29.9-17.4 3-35.5 5.6-89.1 12.5-177 3.7c-47-4.7-92.8-12.6-138.4-26.3q-36.5-11-75.9-27.3c-100-41.4-191.4-102.8-265.8-181.3q-38.5-40.5-73.1-90.2-54.6-78.3-87.7-166.8-25.5-68.3-37.1-145.4-2.6-17.1-4.1-34.5-3.8-42.2-3.1-100 0.6-51.4 8.8-98.4 7.1-40.6 18.5-80.6 4-14.5 12.3-39c11.7-34.9 26.7-67.9 44.5-100.8q20.5-37.7 41.8-68.9 30.2-44.5 66.1-84.6 1.8-2 4.7-3.5 0.5 0 0.7 0.5 0.2 0.3 0.2 0.8-9.7 80.1-7.1 160.7 0.4 11.6 2.9 41.3 4.1 47.3 15 91.1 2.7 10.8 4.3 17.8c4.6 19.4 11.9 38.4 19.1 57q2.7 7-0.3 13.4c-5.7 12.4-11.3 24.3-16.1 37.7q-8.6 24.3-14.6 45.3c-5.4 19-9.7 41-12.2 61.7q-9 74.5 4 149.8 3.4 19.9 9.1 38.2c6.2 20.3 13.3 41.3 21.7 60.2q26.4 59.2 68.1 109.5-2.7-0.2-4.8-2.3-2.2-2.3-5.2-1.4-9.9 2.8-18.8 7.7-15.5 8.4-14.8 25.5c0.5 10.9 8.7 23.4 16.1 31.7q37 41.2 80.9 76.2 37.2 29.7 74.8 50.7 29.9 16.7 66.6 32.3 7.7 3.3 16.1 6.4 8.1 3 16.1 6 26.3 9.8 63.1 19.7 13.6 3.6 51.3 11.4c9.3 1.9 18.8 3.3 28.4 4.5q30.8 3.9 66.3 5.5 16.1 0.8 55.2 0.4 16.7-0.2 35.2-1.7 23.9-2 35.1-3.8 50-8 100.8-21 16.8-4.3 33.7-9.9 26.6-8.9 47-17.8 29-12.7 62.3-31 67.7-37.1 118.9-87.8 16.8-16.7 32.6-33.7 11.1-12 17.3-24.1c12.7-25.1-7.8-42.4-29.6-48.3q-1.5-0.4-2.9 0.1 0 0.1-0.1 0 0 0 0.1-0.1l0.4-0.2q1.4-0.8-0.1-0.3-2.1 0.7-2-0.6 23.8-31.4 38.4-56.1 39-66.1 53.7-141.4 11.7-59.6 8.8-123-1.2-24-5.2-46.2-8.3-46.2-20.4-79.4-10.3-28.5-22.5-55.8c-0.5-1.1-0.5-2.3-0.1-3.4q17.2-44.8 27.2-93.1 8.7-41.9 12.3-78.4 10.1-103.3-4.4-206.4z"/>
			<path id="&lt;Path&gt;" class="s1" d="m410.4 447.3q-14.5-6.8-28.4-14c-6.3-3.2-12.8-6.1-19.2-9-8.3-3.8-17.1-6.9-25.5-10.6q-4.5-1.9-9.2-3.2c-7.6-2.3-14.7-5.3-22.7-7.3q-15.6-3.9-31-7.9 0.1-38.5 3-74.3 0.1-1.3 1.4-1.1 19.8 3.9 38.5 9.6 53.2 16.2 84.6 29.7 37.6 16.1 73.4 38.9c1 0.6 1 2.1 0 2.7q-33.8 21.4-64.9 46.5z"/>
			<path id="&lt;Path&gt;" class="s1" d="m1265.7 394.2q-32.6 8.5-63.9 20.1-9.6 3.5-21.4 9.3-18.6 9-36.6 17.7-5.3 2.6-10.3 3-0.8 0.1-1.6-0.3l-12.2-5.5q-2.7-1.6-5.2-3.9-3.2-2.9-4.9-4.1-22-15.4-43.5-29c-1.1-0.7-1.1-2.3 0-3q18.5-12.8 41.4-24.1 73.7-36.6 153.3-54.2c0.6-0.2 1.2 0.3 1.3 0.9q3.4 36.5 3.6 73.1z"/>
			<path id="&lt;Path&gt;" class="s1" d="m1271.2 887.3q-3.2-3.4-2.6-9.6 0.1-0.8-0.3-1.7-1.1-2.6-1-5.5 0.2-15.6 0.5-32.6 0-2-1-3.8c-2.1-3.7-11.4-7.1-15.3-8.5-11.9-3.9-22.7 0.5-29.4 11q-2.8 4.5-3.1 10.5-0.7 13-1.6 28.1-1.5 26.6-7.6 56.1c-4 19.3-10.6 38.4-18 56.6q-12.8 31.6-32.5 59.4-15.8 22.3-28.1 37.3-4.8 5.8-10.8 11.4c-13.3 12.5-25.5 25-40.1 36.5q-11 8.7-21.7 16.4-29.7 21.3-64.4 37.3-17.6 8-35.4 14.7-7.4 2.8-15.6 4.9-0.3 0.1-0.5 0.3-0.2 0.2-0.4 0.4-0.3 0.2-0.6 0.4-12.2 3.5-24.1 7.6-3.1 1-6.2 1.4-3.1 0.5-6.2 1.6-3 1.1-6.1 1.8-2.9 0.6-5.8 1.5-7.5 2.4-15.5 3.7-1 0.1-1.5 0.9-0.7 0.7-1.7 0.7-7.1 0.1-14 1.6-10.6 2.3-22.9 2.8c-1.5 0.1-2.9 0.9-4.4 1q-21.6 2.2-45.5 3.4c-30.6 1.4-60.5-0.9-90.9-3.9-15.6-1.6-31.2-5.9-47.1-8.8q-9.4-1.7-18.6-4.3-8.3-2.3-16.6-4.6c-7-1.9-13.5-4.6-20.6-6.9q-7.7-2.5-15.3-5.5-5.3-2.1-10.7-4.2-5.3-2-10.4-4.6-20.6-10.2-39-20-3-1.6-9.3-5.8-4.4-2.9-9.5-5.4-0.4-0.2-0.7-0.6c-0.4-0.5-0.9-1-1.4-1.3q-6-3.2-15.7-9.8-40-27.5-69.1-60.9-23-26.4-33.8-43-32.1-49.1-47.9-112.3-6.1-24.3-8-45.9-1.8-21.1-3.1-42.8c-0.6-8.5-8.1-14.9-15.4-17.9-9.5-4-23.1 2.1-31.4 7q-1 0.6-2.5-0.6 11.3-111 72.1-203.8c13.4-20.3 27.9-40.8 43.9-59.2q31-35.6 66.1-65.1 44.7-37.7 102.6-67.1 14.9-7.5 32.3-14.5 59.8-23.9 124.4-32.5 21.5-2.8 40.8-3.4c23.5-0.7 47.8 0.1 71.1 3.1q47.4 6 89.3 19.2 66.4 20.9 124.4 59.8c17.9 12.1 35.9 24.7 52.4 38.8 41.6 35.5 79.3 77.3 108.9 123.8q53.7 84.3 68.6 178.7 5.4 34.2 3.5 76.7z"/>
			<path id="&lt;Path&gt;" class="s3" d="m274.4 395.3q15.4 4 31 7.9c8 2 15.1 5 22.7 7.3q4.7 1.3 9.2 3.2c8.4 3.7 17.2 6.8 25.5 10.6 6.4 2.9 12.9 5.8 19.2 9q13.9 7.2 28.4 14c-26.5 22.2-54.5 47.6-76.1 74.5q-20.4 25.4-37.3 50-0.3 0.4-0.8 0.3-0.5-0.1-0.6-0.7c-3.7-17.3-8.6-35.2-11.5-52.4q-10-59.8-9.7-120.6 0-2.6 0-3.1z"/>
			<path id="&lt;Path&gt;" class="s3" d="m1265.7 394.2q-0.1 47.5-5 94.4-4.3 41-15.6 82.1c-0.1 0.7-0.8 1-1.4 0.6q-0.5-0.2-0.7-0.7-4.5-7.6-9.6-14.5-17.4-23.9-36.3-45.6c-12.2-14-26.8-27.3-40.7-40.5q-17.4-16.6-36.7-31.5l12.2 5.5q0.8 0.4 1.6 0.3 5-0.4 10.3-3 18-8.7 36.6-17.7 11.8-5.8 21.4-9.3 31.3-11.6 63.9-20.1z"/>
			<path id="&lt;Path&gt;" class="s2" d="m505.2 899.4c-44.4-17.6-66-68-48.3-112.5 17.7-44.5 68-66.3 112.4-48.7 44.4 17.7 66 68.1 48.3 112.6-17.7 44.5-68.1 66.3-112.4 48.6z"/>
			<path id="&lt;Path&gt;" class="s2" d="m1078.2 858.6q-9.3 18.9-28.9 31.9-28.1 18.8-62.4 13.8c-34.4-5.1-64.8-36.1-69.9-70.5-8.8-59.3 36.5-108.2 96.7-100.9q21.3 2.5 37.7 14.7c35.4 26.2 45.4 72.9 26.8 111z"/>
			<path id="&lt;Path&gt;" class="s1" d="m587.4 781.1c0 14-11.4 25.4-25.4 25.4-14 0-25.4-11.4-25.4-25.4 0-14.1 11.4-25.4 25.4-25.4 14 0 25.4 11.3 25.4 25.4z"/>
			<path id="&lt;Path&gt;" class="s1" d="m1042.3 800.4c-10.3 9.1-26.2 7.9-35.5-2.7-9.3-10.6-8.6-26.6 1.7-35.7 10.3-9 26.2-7.8 35.6 2.8 9.3 10.6 8.5 26.5-1.8 35.6z"/>
			<path id="&lt;Path&gt;" class="s3" d="m1271.2 887.3q-4 88.2-45.5 164.7-23.8 43.7-58.9 82.2c-47.7 52.3-108.2 94.3-175.2 121.3q-93.8 37.9-193.3 42.5-71.7 3.2-140.6-10.2-25.7-5-61.9-15.8-22.2-6.6-55.1-20.5c-54.9-23.2-105.6-57.6-148.7-98.8-8-7.6-15.2-15.8-22.6-24q-6-6.7-13.3-16.4c-5.7-7.5-12.2-15.3-17.1-22.4q-36.9-53.4-53.7-109-21.6-71.2-14.5-148.1 1.5 1.2 2.5 0.6c8.3-4.9 21.9-11 31.4-7 7.3 3 14.8 9.4 15.4 17.9q1.3 21.7 3.1 42.8 1.9 21.6 8 45.9 15.8 63.2 47.9 112.3 10.8 16.6 33.8 43 29.1 33.4 69.1 60.9 9.7 6.6 15.7 9.8c0.5 0.3 1 0.8 1.4 1.3q0.3 0.4 0.7 0.6 5.1 2.5 9.5 5.4 6.3 4.2 9.3 5.8 18.4 9.8 39 20 5.1 2.6 10.4 4.6 5.4 2.1 10.7 4.2 7.6 3 15.3 5.5c7.1 2.3 13.6 5 20.6 6.9q8.3 2.3 16.6 4.6 9.2 2.6 18.6 4.3c15.9 2.9 31.5 7.2 47.1 8.8 30.4 3 60.3 5.3 90.9 3.9q23.9-1.2 45.5-3.4c1.5-0.1 2.9-0.9 4.4-1q12.3-0.5 22.9-2.8 6.9-1.5 14-1.6 1 0 1.7-0.7 0.5-0.8 1.5-0.9 8-1.3 15.5-3.7 2.9-0.9 5.8-1.5 3.1-0.7 6.1-1.8 3.1-1.1 6.2-1.6 3.1-0.4 6.2-1.4 11.9-4.1 24.1-7.6 0.3-0.2 0.6-0.4 0.2-0.2 0.4-0.4 0.2-0.2 0.5-0.3 8.2-2.1 15.6-4.9 17.8-6.7 35.4-14.7 34.7-16 64.4-37.3 10.7-7.7 21.7-16.4c14.6-11.5 26.8-24 40.1-36.5q6-5.6 10.8-11.4 12.3-15 28.1-37.3 19.7-27.8 32.5-59.4c7.4-18.2 14-37.3 18-56.6q6.1-29.5 7.6-56.1 0.9-15.1 1.6-28.1 0.3-6 3.1-10.5c6.7-10.5 17.5-14.9 29.4-11 3.9 1.4 13.2 4.8 15.3 8.5q1 1.8 1 3.8-0.3 17-0.5 32.6-0.1 2.9 1 5.5 0.4 0.9 0.3 1.7-0.6 6.2 2.6 9.6z"/>
			<path id="&lt;Path&gt;" class="s2" d="m797 951.4c-0.8 0-1.3 0.8-1 1.5q2.1 6.3 4.8 13.1c6.1 16.1 21.7 28.2 39.2 26.7 9.1-0.7 21.9-7.3 23.3-17.5q1.2-8.6 2.6-16.9c1.2-6.8 5.1-12.1 11.5-14.7q14-5.8 24.7 2.2c10.5 7.7 12.4 24.2 10.9 36.2q-4.4 36-33.8 54.3c-12.6 7.8-31.3 12.8-46.3 12.1q-39.2-1.7-62.7-34c-0.7-1-2.3-0.9-3 0.2-10.6 18.2-33 29.1-54.2 32.8-28.2 4.9-55.8-6.4-72.8-29q-15.2-20.3-14-48.2 0.5-11.2 5.3-18.1c6-8.7 19.1-13.9 29.3-9 11.3 5.5 12.4 14 13.7 24.7 1.3 11.2 6.5 19.1 17.3 23.7q5.5 2.3 11.1 1.7c24.6-2.6 33.5-18.3 39.9-39.5 0.2-0.8-0.3-1.6-1.1-1.7q-2.9-0.3-5.9-0.6c-26.4-2.4-39.7-38.7-24.1-58.6q7.6-9.6 19.7-9.6 37.8-0.2 76.6-0.1c15.8 0.1 25.6 14.4 26.3 29.1q0.7 13.9-8.3 26.1c-6.6 9-18.5 12.5-29 13.1z"/>
			<path id="&lt;Path&gt;" class="s0" d="m513.1 980.9c0 26.6-21.6 48.3-48.2 48.3-26.7 0-48.3-21.7-48.3-48.3 0-26.6 21.6-48.3 48.3-48.3 26.6 0 48.2 21.7 48.2 48.3z"/>
			<path id="&lt;Path&gt;" class="s0" d="m1123.3 980.8c0 26.6-21.5 48.2-48.2 48.2-26.6 0-48.2-21.6-48.2-48.2 0-26.6 21.6-48.2 48.2-48.2 26.7 0 48.2 21.6 48.2 48.2z"/>
			<path id="&lt;Path&gt;" class="s4" d="m1242.8 1156.5q-0.1 1.3 2 0.6 1.5-0.5 0.1 0.3l-0.4 0.2q-0.1 0.1-0.1 0.1 0.1 0.1 0.1 0 1.4-0.5 2.9-0.1c21.8 5.9 42.3 23.2 29.6 48.3q-6.2 12.1-17.3 24.1-15.8 17-32.6 33.7-51.2 50.7-118.9 87.8-33.3 18.3-62.3 31-20.4 8.9-47 17.8-16.9 5.6-33.7 9.9-50.8 13-100.8 21-11.2 1.8-35.1 3.8-18.5 1.5-35.2 1.7-39.1 0.4-55.2-0.4-35.5-1.6-66.3-5.5c-9.6-1.2-19.1-2.6-28.4-4.5q-37.7-7.8-51.3-11.4-36.8-9.9-63.1-19.7-8-3-16.1-6-8.4-3.1-16.1-6.4-36.7-15.6-66.6-32.3-37.6-21-74.8-50.7-43.9-35-80.9-76.2c-7.4-8.3-15.6-20.8-16.1-31.7q-0.7-17.1 14.8-25.5 8.9-4.9 18.8-7.7 3-0.9 5.2 1.4 2.1 2.1 4.8 2.3 39.8 48.2 81.8 81.2 65.7 51.5 153.2 85.5 14.5 5.6 38 12.9c99.8 30.6 204.4 37 306.8 19.6q19.1-3.3 36.2-7.4 60.2-14.3 112.9-36.9 46.9-20.3 94.1-51.7 14.4-9.6 28.8-21.1 49-39.1 88.2-88z"/>
		</g>
	</g>
	<g id="Dossier 1">
	</g>
</svg>